<svg id="Component_12_1" data-name="Component 12 – 1" xmlns="http://www.w3.org/2000/svg" width="4219" height="2446" viewBox="0 0 4219 2446">
  <circle id="Screen_Shot_2021-05-25_at_1.38.14_PM" data-name="Screen Shot 2021-05-25 at 1.38.14 PM" cx="161" cy="161" r="161" fill="#5417eb"/>
  <circle id="Screen_Shot_2021-05-25_at_1.38.14_PM-2" data-name="Screen Shot 2021-05-25 at 1.38.14 PM" cx="286.5" cy="286.5" r="286.5" transform="translate(1704 36)" fill="#119db7"/>
  <circle id="Screen_Shot_2021-05-25_at_1.38.14_PM-3" data-name="Screen Shot 2021-05-25 at 1.38.14 PM" cx="578.5" cy="578.5" r="578.5" transform="translate(116 255)" fill="#5417eb"/>
  <circle id="Screen_Shot_2021-05-25_at_1.38.14_PM-4" data-name="Screen Shot 2021-05-25 at 1.38.14 PM" cx="134.5" cy="134.5" r="134.5" transform="translate(1675 988)" fill="#119db7"/>
  <ellipse id="Screen_Shot_2021-05-25_at_1.38.14_PM-5" data-name="Screen Shot 2021-05-25 at 1.38.14 PM" cx="205" cy="204" rx="205" ry="204" transform="translate(2664 118)" fill="#119db7"/>
  <circle id="Screen_Shot_2021-05-25_at_1.38.14_PM-6" data-name="Screen Shot 2021-05-25 at 1.38.14 PM" cx="134.5" cy="134.5" r="134.5" transform="translate(44 1247)" fill="#119db7"/>
  <circle id="Screen_Shot_2021-05-25_at_1.38.14_PM-7" data-name="Screen Shot 2021-05-25 at 1.38.14 PM" cx="474.5" cy="474.5" r="474.5" transform="translate(1920 1052)" fill="#5417eb"/>
  <circle id="Screen_Shot_2021-05-25_at_1.38.14_PM-8" data-name="Screen Shot 2021-05-25 at 1.38.14 PM" cx="228" cy="228" r="228" transform="translate(3303 1247)" fill="#5417eb"/>
  <circle id="Screen_Shot_2021-05-25_at_1.38.14_PM-9" data-name="Screen Shot 2021-05-25 at 1.38.14 PM" cx="161" cy="161" r="161" transform="translate(1418 697)" fill="#5417eb"/>
  <ellipse id="Screen_Shot_2021-05-25_at_1.38.14_PM-10" data-name="Screen Shot 2021-05-25 at 1.38.14 PM" cx="205" cy="204" rx="205" ry="204" transform="translate(3170 1728)" fill="#119db7"/>
  <circle id="Screen_Shot_2021-05-25_at_1.38.14_PM-11" data-name="Screen Shot 2021-05-25 at 1.38.14 PM" cx="228" cy="228" r="228" transform="translate(1295 1990)" fill="#5417eb"/>
  <circle id="Screen_Shot_2021-05-25_at_1.38.14_PM-12" data-name="Screen Shot 2021-05-25 at 1.38.14 PM" cx="134.5" cy="134.5" r="134.5" transform="translate(3950 2095)" fill="#119db7"/>
</svg>
